<?xml version="1.0" encoding="utf-8"?>
<svg xmlns="http://www.w3.org/2000/svg"
	xmlns:xlink="http://www.w3.org/1999/xlink"
	width="389px" height="416px" viewBox="0 0 389 416">
<path fillRule="evenodd" d="M 362.3 249.51C 362.3 249.51 331 249.51 331 249.51 327.98 260.92 323.82 271.8 318.54 281.94 318.54 281.94 340.49 305.45 340.49 305.45 350.63 316.31 350.63 333.91 340.49 344.76 340.49 344.76 322.14 364.42 322.14 364.42 312 375.28 295.56 375.28 285.43 364.42 285.43 364.42 263.47 340.91 263.47 340.91 254 346.57 243.84 351.02 233.19 354.25 233.19 354.25 233.19 387.78 233.19 387.78 233.19 403.05 221.63 415.43 207.37 415.43 207.37 415.43 181.55 415.43 181.55 415.43 167.28 415.43 155.72 403.05 155.72 387.78 155.72 387.78 155.72 354.25 155.72 354.25 144.69 350.91 134.21 346.2 124.44 340.26 124.44 340.26 101.87 364.42 101.87 364.42 91.74 375.28 75.3 375.28 65.16 364.42 65.16 364.42 46.81 344.76 46.81 344.76 36.67 333.91 36.67 316.31 46.81 305.45 46.81 305.45 69.77 280.87 69.77 280.87 64.75 271.04 60.83 260.51 57.92 249.51 57.92 249.51 26.61 249.51 26.61 249.51 12.35 249.51 0.79 237.13 0.79 221.86 0.79 221.86 0.79 194.21 0.79 194.21 0.79 178.93 12.35 166.55 26.61 166.55 26.61 166.55 57.92 166.55 57.92 166.55 60.94 155.15 65.1 144.27 70.38 134.12 70.38 134.12 46.81 108.88 46.81 108.88 36.67 98.03 36.67 80.43 46.81 69.57 46.81 69.57 65.16 49.91 65.16 49.91 75.3 39.06 91.74 39.06 101.87 49.91 101.87 49.91 125.44 75.15 125.44 75.15 134.92 69.5 145.07 65.04 155.72 61.81 155.72 61.81 155.72 28.29 155.72 28.29 155.72 13.01 167.28 0.63 181.55 0.63 181.55 0.63 207.37 0.63 207.37 0.63 221.63 0.63 233.19 13.01 233.19 28.29 233.19 28.29 233.19 61.81 233.19 61.81 243.46 64.93 253.29 69.13 262.47 74.5 262.47 74.5 285.43 49.91 285.43 49.91 295.56 39.06 312 39.06 322.14 49.91 322.14 49.91 340.49 69.57 340.49 69.57 350.63 80.43 350.63 98.03 340.49 108.88 340.49 108.88 317.93 133.05 317.93 133.05 323.48 143.51 327.87 154.73 331 166.55 331 166.55 362.3 166.55 362.3 166.55 376.57 166.55 388.13 178.93 388.13 194.21 388.13 194.21 388.13 221.86 388.13 221.86 388.13 237.13 376.57 249.51 362.3 249.51ZM 194.46 125.07C 151.67 125.07 116.99 162.22 116.99 208.03 116.99 253.85 151.67 290.99 194.46 290.99 237.24 290.99 271.92 253.85 271.92 208.03 271.92 162.22 237.24 125.07 194.46 125.07ZM 194.46 249.51C 173.07 249.51 155.72 230.94 155.72 208.03 155.72 185.12 173.07 166.55 194.46 166.55 215.85 166.55 233.19 185.12 233.19 208.03 233.19 230.94 215.85 249.51 194.46 249.51Z" fill="rgb(255,255,255)"/></svg>